<svg xmlns="http://www.w3.org/2000/svg" xmlns:xlink="http://www.w3.org/1999/xlink" viewBox="0 0 400 300"><defs><linearGradient id="linear-gradient" x1="242.24" y1="242.79" x2="215.19" y2="214.12" gradientUnits="userSpaceOnUse"><stop offset="0" stop-color="#fff" stop-opacity="0"/><stop offset="0.99" stop-color="#0071bc"/></linearGradient><linearGradient id="linear-gradient-2" x1="136.7" y1="233.24" x2="116.56" y2="211.89" xlink:href="#linear-gradient"/><linearGradient id="linear-gradient-3" x1="171.58" y1="260.99" x2="151.48" y2="239.68" xlink:href="#linear-gradient"/><linearGradient id="linear-gradient-4" x1="293.68" y1="233.75" x2="273.58" y2="212.44" xlink:href="#linear-gradient"/></defs><g style="isolation:isolate"><g id="Layer_2" data-name="Layer 2"><path d="M66,223l105.33,61a22.08,22.08,0,0,0,22.11,0l136.19-78.63a11.38,11.38,0,0,0,0-19.72L221.3,123.53a17.91,17.91,0,0,0-17.9,0L65.94,203.35A11.38,11.38,0,0,0,66,223Z" fill="#80a7ff"/><path d="M233.37,208.14l-46.47,24.4,47.33,27.57h1.19c18.55-10.23,31.11-17.82,44.29-26C262.68,225,249.15,219.25,233.37,208.14Z" opacity="0.63" fill="url(#linear-gradient)" style="mix-blend-mode:multiply"/><polyline points="155.06 128.77 155.06 213.64 194.36 236.48 238.81 210.37 238.81 125.43" fill="#8bd346"/><polygon points="194.36 150.85 194.36 236.48 238.81 211.15 238.81 125.43 194.36 150.85" fill="#72b22f"/><polygon points="155.06 128.77 199.83 102.92 238.81 125.43 194.36 150.85 155.06 128.77" fill="#72b22f"/><path d="M170.35,36.84a50.7,50.7,0,0,1-3.33-5.3c-.41-1.13,1.72-2.58,3.71-2.72s2.2,2.13,2.2,2.13a1.11,1.11,0,0,1,1.31.59c.48.86-.73,3.51-.87,3.59L175.67,38l-3.85,1.88Z" fill="#ef986c"/><path d="M196,126.84c0-1.65.08-3.29.09-4.94l-7.24,1.42s.36,2.8-.43,3.81-6.83,4-7.55,4.89-.93,2.69,3.31,2.53,7.62-3.1,8.55-3.32a14.5,14.5,0,0,0,3.46-.91C196.2,129.16,196,128,196,126.84Z" fill="#2a343d"/><path d="M208.36,128.93c0-1.65.08-3.29.09-4.94l-7.24,1.42s.36,2.8-.43,3.81-6.83,4-7.55,4.89-.93,2.69,3.31,2.53,7.62-3.1,8.55-3.32a14.5,14.5,0,0,0,3.46-.91C208.52,131.24,208.36,130.08,208.36,128.93Z" fill="#2a343d"/><path d="M205,58.29l-3.67.67a10.18,10.18,0,0,0,0-1.38c-.77,0-1.54-.11-2.3-.21-2.15-.26-3.91-2.41-5.93-3.21-.87,4.16-1.1,13.25-2.12,19.84-1.29,8.35-5.22,47.14-4.1,50.36,0,0,0,1.16,6.66,1.53,0,0,1.6.92,3.95-2.39l2.37-41.3-1.09,44.31c2,1.86,5.07,2.72,10.66-.07L212.2,70.3Z" fill="#35406e"/><path d="M199.57,55.66q.88.1,1.76.15c-.46-7.87-2.91-25.46-8.15-1.66A22.4,22.4,0,0,0,199.57,55.66Z" fill="#35406e"/><path d="M209.14,90a6,6,0,0,1,3.81-6.43c4.54-1.83,4.45,6,4.45,6l2.28-.89S221,80.4,213,81s-6.74,9.81-6.74,9.81Z" fill="#ce4823"/><path d="M215.38,78.61l-.06-.29a.71.71,0,0,0,0-.29l-1-6.9a.52.52,0,0,0-.37-.46,6.14,6.14,0,0,0-.2-1.22,1.69,1.69,0,0,0-2-.34c-.34-.37-1.07-.42-1.16.2s-.22,1.49-.32,2.24h0l-.06-.24a.61.61,0,0,0-.28-.39c-.17-.55-.3-1.12-.43-1.68-.2-.84-1.49-.48-1.29.36q.1.42.21.84c-.47-.14-1.06.2-.83.77a22.18,22.18,0,0,1,1.49,6.27c-.32,1.31-.59,2.63-.81,4-.13.82-.31,1.94.73,2.22a.68.68,0,0,0,.82-.47q.3-1.34.49-2.7.15.5.31,1a17.89,17.89,0,0,0,.75,2.07c.17.37.41.7.87.68a.81.81,0,0,0,.69-.32.8.8,0,0,0,1,.46c.59-.17.73-.8.72-1.44C216.38,82.2,215.67,80,215.38,78.61Z" fill="#ef986c"/><path d="M215.17,67.56a106.91,106.91,0,0,0-2.1-13.31c-.75-3.51-1.56-9.35-2.85-12.71-1-2.62-3.59-3.5-6.53-4a49.22,49.22,0,0,0-9-.75.88.88,0,0,1-.36-.06c-.24,0-.47.09-.7.14-.89.23-1.78,2.83-2,3.59a19.17,19.17,0,0,0-.79,4.48c-.36,4,.36,7.94.77,11.93.18,1.7-.36,4.5,1.1,5.78a10.27,10.27,0,0,0,4.87,1.79,22.63,22.63,0,0,0,8.34-.46l1.77,11.65c3.22,1.25,7.49-.19,7.49-.19A33.31,33.31,0,0,0,215.17,67.56Z" fill="#68e1fd"/><path d="M202.23,95.59a4.28,4.28,0,0,1,2-3.61c4.77-3,16.56-10.45,17.33-9.74,1,.9,2.91,17.69,2.17,18.25-.56.43-12.47,6.45-18.31,9.4a2.19,2.19,0,0,1-3.17-2Z" fill="#ce4823"/><path d="M194.35,36.77s-.95,6.08,4.56,6.08a5.39,5.39,0,0,0,5.79-4.93A34.42,34.42,0,0,0,194.35,36.77Z" fill="#f2f2f2"/><path d="M193.65,36.92s-7.79,5.23-11.59,5.94c-3.13.59-7.1-8.52-7.1-8.52l-5.39,3.05S173.73,50.86,180.35,52s13.31-5,13.31-5" fill="#68e1fd"/><path d="M201.7,35.35c0,.15,0,1.94,0,1.94l-2.49.51h-2.55l-.47-1.88" fill="#db784d"/><path d="M202.17,36.12a6.16,6.16,0,0,1-3,1.68c-1.19.1-2.61-1.4-3-1.88a12.33,12.33,0,0,0,.7,4.33c.24.4.46.66.62.59.54-.22,1.57-1.67,1.57-1.67s1.15,1.74,1.63,1.68S202.77,38,202.77,38Z" fill="#35406e"/><path d="M205.62,24.53a2.4,2.4,0,0,0-3-.74.46.46,0,0,0-.08-.12c-.63-.68-.91-1.39-1.87-1.66a5.11,5.11,0,0,0-2.69.1,3.27,3.27,0,0,0-2,1.48.41.41,0,0,0-.24-.06,3.6,3.6,0,0,0-3.44,3.68c.08,1.63,1.36,3.44,3,3.56a6,6,0,0,0,2.51.33,1,1,0,0,0,.72-1.63l.12-.08.1,0a.82.82,0,0,0,1.12.14l.14-.08a2.9,2.9,0,0,0,.6-.22l.23.08-.08.24a1,1,0,0,0,.44,1.08,1.5,1.5,0,0,0,.57.13,5.19,5.19,0,0,1-1.7,1.56c-.92.46-.39,1.69.44,1.76-.41.3-.25,2.17.23,1.9a9.74,9.74,0,0,0,4.78-6.27C205.92,28.47,206.47,25.6,205.62,24.53Z" fill="#2a343d"/><path d="M194.66,28.31c-.23,0-.24,7.87,3,8.4,4.09.66,5.62-4.2,5.62-4.2s.6-3.6-1.95-4.8S197.58,28.83,194.66,28.31Z" fill="#ef986c"/><path d="M194.66,28.31s3.22.6,4.95,0-.75,4.95.52,4.95,1.2-3,2.17-1.87-1.47,4.6-1.47,4.6,3.48-1.75,4.28-4.75-3-5.85-6.7-5.55S194.66,28.31,194.66,28.31Z" fill="#2a343d"/><path d="M130.09,207.43,95.49,225.6l35.24,20.53h.89c13.81-7.62,23.17-13.27,33-19.34C151.92,220,141.84,215.71,130.09,207.43Z" opacity="0.63" fill="url(#linear-gradient-2)" style="mix-blend-mode:multiply"/><ellipse cx="109.38" cy="215.65" rx="21.89" ry="12.82" fill="#ff912e"/><polygon points="87.49 215.65 87.49 211.95 89.87 214.91 87.49 215.65" fill="#e0944f"/><polygon points="131.26 211.95 131.26 215.65 128.49 215.65 130.52 212.68 131.26 211.95" fill="#e0944f"/><ellipse cx="109.38" cy="211.95" rx="21.89" ry="12.82" fill="#ffb92c"/><path d="M120.48,210.23a1.71,1.71,0,0,1,.17,1l-.09.34-4,0a1.82,1.82,0,0,0,.07-.34,1.49,1.49,0,0,0-.24-.73,2.19,2.19,0,0,0-1-.89,4.37,4.37,0,0,0-1.88-.49,4,4,0,0,0-1.78.27q-.84.36-.65.94a3.46,3.46,0,0,0,.85,1.25A15.22,15.22,0,0,1,113.2,213a1.46,1.46,0,0,1,.22,1.54,3.44,3.44,0,0,1-1.94,1.51,11.5,11.5,0,0,1-4.23.88,13.54,13.54,0,0,1-4.63-.65l-2.3,1-2.69-1.31,2.23-1a5,5,0,0,1-1.07-1,2.84,2.84,0,0,1-.53-.89,2.93,2.93,0,0,1-.14-.72,1.56,1.56,0,0,1,0-.5l.08-.19h4a3.19,3.19,0,0,0-.1.4,1.7,1.7,0,0,0,.32.91,3,3,0,0,0,1.32,1.13,5.68,5.68,0,0,0,2.32.6,4.83,4.83,0,0,0,2.14-.34q.83-.36.62-.94a3.45,3.45,0,0,0-.88-1.25,12.79,12.79,0,0,1-1.22-1.39,1.43,1.43,0,0,1-.17-1.55,3.73,3.73,0,0,1,2-1.54,11,11,0,0,1,4.06-.8,11.73,11.73,0,0,1,4.33.67l2.29-1,2.51,1.37-2.3,1A3.27,3.27,0,0,1,120.48,210.23Z" fill="#ea8b24"/><ellipse cx="109.41" cy="212.1" rx="18.37" ry="10.76" fill="none" stroke="#f7931e" stroke-miterlimit="10" stroke-width="2"/><ellipse cx="109.38" cy="210.98" rx="21.89" ry="12.82" fill="#ff912e"/><polygon points="87.49 210.98 87.49 207.28 89.87 210.24 87.49 210.98" fill="#e0944f"/><polygon points="131.26 207.28 131.26 210.98 128.49 210.98 130.52 208.01 131.26 207.28" fill="#e0944f"/><ellipse cx="109.38" cy="207.28" rx="21.89" ry="12.82" fill="#ffb92c"/><path d="M120.48,205.56a1.71,1.71,0,0,1,.17,1l-.09.34-4,0a1.82,1.82,0,0,0,.07-.34,1.49,1.49,0,0,0-.24-.73,2.19,2.19,0,0,0-1-.89,4.37,4.37,0,0,0-1.88-.49,4,4,0,0,0-1.78.27q-.84.36-.65.94a3.46,3.46,0,0,0,.85,1.25,15.22,15.22,0,0,1,1.21,1.39,1.46,1.46,0,0,1,.22,1.54,3.44,3.44,0,0,1-1.94,1.51,11.5,11.5,0,0,1-4.23.88,13.54,13.54,0,0,1-4.63-.65l-2.3,1-2.69-1.31,2.23-1a5,5,0,0,1-1.07-1,2.84,2.84,0,0,1-.53-.89,2.93,2.93,0,0,1-.14-.72,1.56,1.56,0,0,1,0-.5l.08-.19h4a3.19,3.19,0,0,0-.1.4,1.7,1.7,0,0,0,.32.91,3,3,0,0,0,1.32,1.13,5.68,5.68,0,0,0,2.32.6,4.83,4.83,0,0,0,2.14-.34q.83-.36.62-.94a3.45,3.45,0,0,0-.88-1.25,12.79,12.79,0,0,1-1.22-1.39,1.43,1.43,0,0,1-.17-1.55,3.73,3.73,0,0,1,2-1.54,11,11,0,0,1,4.06-.8A11.73,11.73,0,0,1,117,203l2.29-1,2.51,1.37-2.3,1A3.27,3.27,0,0,1,120.48,205.56Z" fill="#ea8b24"/><ellipse cx="109.41" cy="207.43" rx="18.37" ry="10.76" fill="none" stroke="#f7931e" stroke-miterlimit="10" stroke-width="2"/><ellipse cx="109.38" cy="206.54" rx="21.89" ry="12.82" fill="#ff912e"/><polygon points="87.49 206.54 87.49 202.84 89.87 205.8 87.49 206.54" fill="#e0944f"/><polygon points="131.26 202.84 131.26 206.54 128.49 206.54 130.52 203.57 131.26 202.84" fill="#e0944f"/><ellipse cx="109.38" cy="202.84" rx="21.89" ry="12.82" fill="#ffb92c"/><path d="M120.48,201.12a1.71,1.71,0,0,1,.17,1l-.09.34-4,0a1.82,1.82,0,0,0,.07-.34,1.49,1.49,0,0,0-.24-.73,2.19,2.19,0,0,0-1-.89,4.37,4.37,0,0,0-1.88-.49,4,4,0,0,0-1.78.27q-.84.36-.65.94a3.46,3.46,0,0,0,.85,1.25,15.22,15.22,0,0,1,1.21,1.39,1.46,1.46,0,0,1,.22,1.54,3.44,3.44,0,0,1-1.94,1.51,11.5,11.5,0,0,1-4.23.88,13.54,13.54,0,0,1-4.63-.65l-2.3,1-2.69-1.31,2.23-1a5,5,0,0,1-1.07-1,2.84,2.84,0,0,1-.53-.89,2.93,2.93,0,0,1-.14-.72,1.56,1.56,0,0,1,0-.5l.08-.19h4a3.19,3.19,0,0,0-.1.4,1.7,1.7,0,0,0,.32.91,3,3,0,0,0,1.32,1.13,5.68,5.68,0,0,0,2.32.6,4.83,4.83,0,0,0,2.14-.34q.83-.36.62-.94a3.45,3.45,0,0,0-.88-1.25,12.79,12.79,0,0,1-1.22-1.39,1.43,1.43,0,0,1-.17-1.55,3.73,3.73,0,0,1,2-1.54,11,11,0,0,1,4.06-.8,11.73,11.73,0,0,1,4.33.67l2.29-1,2.51,1.37-2.3,1A3.27,3.27,0,0,1,120.48,201.12Z" fill="#ea8b24"/><ellipse cx="109.41" cy="202.99" rx="18.37" ry="10.76" fill="none" stroke="#f7931e" stroke-miterlimit="10" stroke-width="2"/><ellipse cx="109.38" cy="202.02" rx="21.89" ry="12.82" fill="#ff912e"/><polygon points="87.49 202.02 87.49 198.31 89.87 201.27 87.49 202.02" fill="#e0944f"/><polygon points="131.26 198.31 131.26 202.02 128.49 202.02 130.52 199.04 131.26 198.31" fill="#e0944f"/><ellipse cx="109.38" cy="198.31" rx="21.89" ry="12.82" fill="#ffb92c"/><path d="M120.48,196.6a1.71,1.71,0,0,1,.17,1l-.09.34-4,0a1.82,1.82,0,0,0,.07-.34,1.49,1.49,0,0,0-.24-.73,2.19,2.19,0,0,0-1-.89,4.37,4.37,0,0,0-1.88-.49,4,4,0,0,0-1.78.27q-.84.36-.65.94A3.46,3.46,0,0,0,112,198a15.22,15.22,0,0,1,1.21,1.39,1.46,1.46,0,0,1,.22,1.54,3.44,3.44,0,0,1-1.94,1.51,11.5,11.5,0,0,1-4.23.88,13.54,13.54,0,0,1-4.63-.65l-2.3,1-2.69-1.31,2.23-1a5,5,0,0,1-1.07-1,2.84,2.84,0,0,1-.53-.89,2.93,2.93,0,0,1-.14-.72,1.56,1.56,0,0,1,0-.5l.08-.19h4a3.19,3.19,0,0,0-.1.4,1.7,1.7,0,0,0,.32.91,3,3,0,0,0,1.32,1.13,5.68,5.68,0,0,0,2.32.6,4.83,4.83,0,0,0,2.14-.34q.83-.36.62-.94a3.45,3.45,0,0,0-.88-1.25,12.79,12.79,0,0,1-1.22-1.39,1.43,1.43,0,0,1-.17-1.55,3.73,3.73,0,0,1,2-1.54,11,11,0,0,1,4.06-.8A11.73,11.73,0,0,1,117,194l2.29-1,2.51,1.37-2.3,1A3.27,3.27,0,0,1,120.48,196.6Z" fill="#ea8b24"/><ellipse cx="109.41" cy="198.47" rx="18.37" ry="10.76" fill="none" stroke="#f7931e" stroke-miterlimit="10" stroke-width="2"/><ellipse cx="109.2" cy="196.46" rx="21.89" ry="12.82" fill="#ff912e"/><polygon points="87.31 196.46 87.31 192.76 89.7 195.72 87.31 196.46" fill="#e0944f"/><polygon points="131.09 192.76 131.09 196.46 128.31 196.46 130.35 193.49 131.09 192.76" fill="#e0944f"/><ellipse cx="109.2" cy="192.76" rx="21.89" ry="12.82" fill="#ffb92c"/><path d="M120.31,191a1.71,1.71,0,0,1,.17,1l-.09.34-4,0a1.82,1.82,0,0,0,.07-.34,1.49,1.49,0,0,0-.24-.73,2.19,2.19,0,0,0-1-.89,4.37,4.37,0,0,0-1.88-.49,4,4,0,0,0-1.78.27q-.84.36-.65.94a3.46,3.46,0,0,0,.85,1.25A15.22,15.22,0,0,1,113,193.8a1.46,1.46,0,0,1,.22,1.54,3.44,3.44,0,0,1-1.94,1.51,11.5,11.5,0,0,1-4.23.88,13.54,13.54,0,0,1-4.63-.65l-2.3,1-2.69-1.31,2.23-1a5,5,0,0,1-1.07-1,2.84,2.84,0,0,1-.53-.89,2.93,2.93,0,0,1-.14-.72,1.56,1.56,0,0,1,0-.5l.08-.19h4a3.19,3.19,0,0,0-.1.4,1.7,1.7,0,0,0,.32.91,3,3,0,0,0,1.32,1.13,5.68,5.68,0,0,0,2.32.6,4.83,4.83,0,0,0,2.14-.34q.83-.36.62-.94a3.45,3.45,0,0,0-.88-1.25,12.79,12.79,0,0,1-1.22-1.39,1.43,1.43,0,0,1-.17-1.55,3.73,3.73,0,0,1,2-1.54,11,11,0,0,1,4.06-.8,11.73,11.73,0,0,1,4.33.67l2.29-1,2.51,1.37-2.3,1A3.27,3.27,0,0,1,120.31,191Z" fill="#ea8b24"/><ellipse cx="109.24" cy="192.92" rx="18.37" ry="10.76" fill="none" stroke="#f7931e" stroke-miterlimit="10" stroke-width="2"/><ellipse cx="109.2" cy="191.79" rx="21.89" ry="12.82" fill="#ff912e"/><polygon points="87.31 191.79 87.31 188.09 89.7 191.05 87.31 191.79" fill="#e0944f"/><polygon points="131.09 188.09 131.09 191.79 128.31 191.79 130.35 188.82 131.09 188.09" fill="#e0944f"/><ellipse cx="109.2" cy="188.09" rx="21.89" ry="12.82" fill="#ffb92c"/><path d="M120.31,186.37a1.71,1.71,0,0,1,.17,1l-.09.34-4,0a1.82,1.82,0,0,0,.07-.34,1.49,1.49,0,0,0-.24-.73,2.19,2.19,0,0,0-1-.89,4.37,4.37,0,0,0-1.88-.49,4,4,0,0,0-1.78.27q-.84.36-.65.94a3.46,3.46,0,0,0,.85,1.25,15.22,15.22,0,0,1,1.21,1.39,1.46,1.46,0,0,1,.22,1.54,3.44,3.44,0,0,1-1.94,1.51,11.5,11.5,0,0,1-4.23.88,13.54,13.54,0,0,1-4.63-.65l-2.3,1-2.69-1.31,2.23-1a5,5,0,0,1-1.07-1,2.84,2.84,0,0,1-.53-.89,2.93,2.93,0,0,1-.14-.72,1.56,1.56,0,0,1,0-.5l.08-.19h4a3.19,3.19,0,0,0-.1.4,1.7,1.7,0,0,0,.32.91,3,3,0,0,0,1.32,1.13,5.68,5.68,0,0,0,2.32.6,4.83,4.83,0,0,0,2.14-.34q.83-.36.62-.94a3.45,3.45,0,0,0-.88-1.25,12.79,12.79,0,0,1-1.22-1.39,1.43,1.43,0,0,1-.17-1.55,3.73,3.73,0,0,1,2-1.54,11,11,0,0,1,4.06-.8,11.73,11.73,0,0,1,4.33.67l2.29-1,2.51,1.37-2.3,1A3.27,3.27,0,0,1,120.31,186.37Z" fill="#ea8b24"/><ellipse cx="109.24" cy="188.24" rx="18.37" ry="10.76" fill="none" stroke="#f7931e" stroke-miterlimit="10" stroke-width="2"/><ellipse cx="109.55" cy="187.35" rx="21.89" ry="12.82" fill="#ff912e"/><polygon points="87.66 187.35 87.66 183.65 90.04 186.61 87.66 187.35" fill="#e0944f"/><polygon points="131.44 183.65 131.44 187.35 128.66 187.35 130.69 184.38 131.44 183.65" fill="#e0944f"/><ellipse cx="109.55" cy="183.65" rx="21.89" ry="12.82" fill="#ffb92c"/><path d="M120.65,181.94a1.71,1.71,0,0,1,.17,1l-.09.34-4,0a1.82,1.82,0,0,0,.07-.34,1.49,1.49,0,0,0-.24-.73,2.19,2.19,0,0,0-1-.89,4.37,4.37,0,0,0-1.88-.49,4,4,0,0,0-1.78.27q-.84.36-.65.94a3.46,3.46,0,0,0,.85,1.25,15.22,15.22,0,0,1,1.21,1.39,1.46,1.46,0,0,1,.22,1.54,3.44,3.44,0,0,1-1.94,1.51,11.5,11.5,0,0,1-4.23.88,13.54,13.54,0,0,1-4.63-.65l-2.3,1-2.69-1.31,2.23-1a5,5,0,0,1-1.07-1,2.84,2.84,0,0,1-.53-.89,2.93,2.93,0,0,1-.14-.72,1.56,1.56,0,0,1,0-.5l.08-.19h4a3.19,3.19,0,0,0-.1.4,1.7,1.7,0,0,0,.32.91,3,3,0,0,0,1.32,1.13,5.68,5.68,0,0,0,2.32.6,4.83,4.83,0,0,0,2.14-.34q.83-.36.62-.94a3.45,3.45,0,0,0-.88-1.25,12.79,12.79,0,0,1-1.22-1.39,1.43,1.43,0,0,1-.17-1.55,3.73,3.73,0,0,1,2-1.54,11,11,0,0,1,4.06-.8,11.73,11.73,0,0,1,4.33.67l2.29-1,2.51,1.37-2.3,1A3.27,3.27,0,0,1,120.65,181.94Z" fill="#ea8b24"/><ellipse cx="109.59" cy="183.8" rx="18.37" ry="10.76" fill="none" stroke="#f7931e" stroke-miterlimit="10" stroke-width="2"/><ellipse cx="116.14" cy="181.79" rx="21.89" ry="12.82" fill="#ff912e"/><polygon points="94.25 181.79 94.25 178.08 96.64 181.04 94.25 181.79" fill="#e0944f"/><polygon points="138.03 178.08 138.03 181.79 135.25 181.79 137.29 178.81 138.03 178.08" fill="#e0944f"/><ellipse cx="116.14" cy="178.08" rx="21.89" ry="12.82" fill="#ffb92c"/><path d="M127.24,176.37a1.71,1.71,0,0,1,.17,1l-.09.34-4,0a1.82,1.82,0,0,0,.07-.34,1.49,1.49,0,0,0-.24-.73,2.19,2.19,0,0,0-1-.89,4.37,4.37,0,0,0-1.88-.49,4,4,0,0,0-1.78.27q-.84.36-.65.94a3.46,3.46,0,0,0,.85,1.25,15.22,15.22,0,0,1,1.21,1.39,1.46,1.46,0,0,1,.22,1.54,3.44,3.44,0,0,1-1.94,1.51,11.5,11.5,0,0,1-4.23.88,13.54,13.54,0,0,1-4.63-.65l-2.3,1-2.69-1.31,2.23-1a5,5,0,0,1-1.07-1,2.84,2.84,0,0,1-.53-.89,2.93,2.93,0,0,1-.14-.72,1.56,1.56,0,0,1,0-.5l.08-.19h4a3.19,3.19,0,0,0-.1.4,1.7,1.7,0,0,0,.32.91,3,3,0,0,0,1.32,1.13,5.68,5.68,0,0,0,2.32.6,4.83,4.83,0,0,0,2.14-.34q.83-.36.62-.94a3.45,3.45,0,0,0-.88-1.25,12.79,12.79,0,0,1-1.22-1.39,1.43,1.43,0,0,1-.17-1.55,3.73,3.73,0,0,1,2-1.54,11,11,0,0,1,4.06-.8,11.73,11.73,0,0,1,4.33.67l2.29-1,2.51,1.37-2.3,1A3.27,3.27,0,0,1,127.24,176.37Z" fill="#ea8b24"/><ellipse cx="116.18" cy="178.24" rx="18.37" ry="10.76" fill="none" stroke="#f7931e" stroke-miterlimit="10" stroke-width="2"/><path d="M145,239.63l-2.51,4.57,33.73,19.64h.89c2.4-1.32,4.65-2.58,6.8-3.8C171.83,253.38,157,246.42,145,239.63Z" opacity="0.63" fill="url(#linear-gradient-3)" style="mix-blend-mode:multiply"/><path d="M164,147.78l-22.36,94.46c-.54,2.27,3,3.24,3.5,1l22.36-94.46c.54-2.27-3-3.24-3.5-1Z" fill="#f2f2f2"/><path d="M185,159l-22.36,94.46c-.54,2.27,3,3.24,3.5,1l22.36-94.46c.54-2.27-3-3.24-3.5-1Z" fill="#f2f2f2"/><path d="M161.66,162.67l21,11.72c2,1.14,3.88-2,1.83-3.14l-21-11.72c-2-1.14-3.88,2-1.83,3.14Z" fill="#f2f2f2"/><path d="M159.47,175.8,179.59,187c2,1.14,3.88-2,1.83-3.14L161.3,172.67c-2-1.14-3.88,2-1.83,3.14Z" fill="#f2f2f2"/><path d="M157,186.44l20.09,11.22c2,1.14,3.88-2,1.83-3.14L158.87,183.3c-2-1.14-3.88,2-1.83,3.14Z" fill="#f2f2f2"/><path d="M153.87,197.88,173.79,209c2,1.14,3.88-2,1.83-3.14l-19.91-11.12c-2-1.14-3.88,2-1.83,3.14Z" fill="#f2f2f2"/><path d="M151.14,208.35l20,11.15c2,1.14,3.88-2,1.83-3.14l-20-11.15c-2-1.14-3.88,2-1.83,3.14Z" fill="#f2f2f2"/><path d="M148.09,220.52l21,11.72c2,1.14,3.88-2,1.83-3.14l-21-11.72c-2-1.14-3.88,2-1.83,3.14Z" fill="#f2f2f2"/><path d="M294.77,224.33c-8.8-4.51-18-9.08-25.93-13.57l-2.51,4.57,21.22,12.36C289.9,226.49,292.34,225.42,294.77,224.33Z" opacity="0.63" fill="url(#linear-gradient-4)" style="mix-blend-mode:multiply"/><path d="M299.19,100.1s-28.87-1.83-30.71-1-2.59,3.91-1.89,8.17,14.47,21.41,14.47,21.41" fill="#68e1fd"/><path d="M307.66,109.36c-.08-.3-3-13.73-16.36-8-12.05,5.17-12.41,20.53-11.6,24.29.66,3.06,3.79,7.22,9.82,8.73" fill="#cc6c6d"/><ellipse cx="295.05" cy="118.04" rx="17.29" ry="12.3" transform="matrix(0.4, -0.92, 0.92, 0.4, 69.45, 341.86)" fill="#f9847f"/><path d="M282.1,118.82l13.06,3.42,2.86-6.07-11.82-7.36S282.82,114,282.1,118.82Z" fill="#fff"/><ellipse cx="296.41" cy="119.11" rx="3.37" ry="2.71" transform="translate(55.93 329.39) rotate(-63.06)" fill="#f7d600"/><rect x="266.29" y="98.89" width="5.72" height="117.53" rx="1.92" ry="1.92" transform="translate(538.31 315.31) rotate(-180)" fill="#68e1fd"/><path d="M323,101.16,317.11,107c-2,2,1.12,5.2,3.16,3.16l5.87-5.87C328.18,102.28,325,99.12,323,101.16Z" fill="#f7d600"/><path d="M335,117.33H323.79c-2.88,0-2.88,4.47,0,4.47H335C337.85,121.8,337.85,117.33,335,117.33Z" fill="#f7d600"/><path d="M324.64,133.94l-5.31-5c-2.09-2-5.26,1.18-3.16,3.16l5.31,5C323.57,139.08,326.74,135.92,324.64,133.94Z" fill="#f7d600"/></g></g></svg>